<svg width="454" height="118" viewBox="0 0 454 118" fill="none" xmlns="http://www.w3.org/2000/svg">
<path d="M48.6881 85.6806L48.7007 85.6933C53.8906 90.8832 62.3049 90.8831 67.4947 85.6931L102.36 50.8272C107.55 45.6372 107.55 37.2229 102.36 32.0329L102.347 32.0203C97.1575 26.8303 88.7432 26.8302 83.5533 32.0201L48.6881 66.8861C43.4982 72.076 43.4982 80.4907 48.6881 85.6806Z" fill="#2AF2B8"/>
<path d="M48.6703 85.6858L48.683 85.6985C53.8728 90.8884 62.2873 90.8884 67.4772 85.6985L84.1436 69.0317C89.3335 63.8418 89.3333 55.4273 84.1435 50.2373L84.1308 50.2246C78.941 45.0347 70.5266 45.0345 65.3368 50.2245L48.6703 66.8913C43.4805 72.0812 43.4805 80.4959 48.6703 85.6858Z" fill="url(#paint0_linear_103_4)"/>
<path d="M32.0324 50.1971L32.0197 50.2098C26.8299 55.3998 26.8301 63.8143 32.0199 69.0042L48.6864 85.671C53.8762 90.8609 62.2904 90.8609 67.4802 85.671L67.4929 85.6583C72.6827 80.4684 72.6829 72.0539 67.493 66.8639L50.8266 50.1971C45.6367 45.0072 37.2222 45.0072 32.0324 50.1971Z" fill="#3468F7"/>
<path d="M157.879 60.0648C156.591 59.2719 155.126 58.811 153.616 58.7235V58.3097C154.931 57.9998 156.179 57.4562 157.302 56.705C158.397 55.9552 159.295 54.9535 159.922 53.7841C160.607 52.4432 160.943 50.9516 160.9 49.4466C160.929 47.4966 160.413 45.5773 159.408 43.9056C158.324 42.2035 156.757 40.8636 154.908 40.057C152.534 39.0399 149.967 38.5563 147.386 38.6404H131.44V80.2732H148.313C151.031 80.3671 153.736 79.862 156.236 78.7939C158.183 77.9438 159.83 76.5288 160.963 74.7322C162.015 72.9811 162.558 70.9708 162.53 68.9279C162.6 67.0434 162.167 65.1744 161.276 63.5123C160.457 62.0912 159.288 60.9042 157.879 60.0648ZM138.987 44.8709H146.621C148.429 44.7378 150.22 45.2931 151.636 46.4254C152.192 46.929 152.633 47.5474 152.927 48.2378C153.221 48.9283 153.362 49.6741 153.341 50.4243C153.368 51.5447 153.053 52.6469 152.438 53.5835C151.808 54.4875 150.941 55.1993 149.931 55.6395C148.822 56.1283 147.62 56.3721 146.408 56.3541H138.886L138.987 44.8709ZM153.04 72.4506C151.786 73.5037 149.843 74.0302 147.11 74.0302H138.961V61.8325H147.286C148.677 61.7948 150.057 62.0913 151.31 62.6974C152.383 63.2223 153.287 64.0391 153.917 65.0542C154.531 66.0616 154.848 67.2218 154.832 68.4014C154.853 69.1617 154.703 69.9169 154.392 70.6112C154.082 71.3056 153.62 71.9213 153.04 72.413V72.4506Z" fill="#272D65"/>
<path d="M187.464 50.6626C185.06 49.2713 182.318 48.5727 179.542 48.6443C176.761 48.5743 174.015 49.2727 171.606 50.6626C169.362 52.0047 167.555 53.9686 166.404 56.3165C165.127 58.96 164.495 61.8686 164.561 64.8035C164.495 67.7304 165.127 70.631 166.404 73.2655C167.562 75.6017 169.368 77.5555 171.606 78.8943C174.015 80.2842 176.761 80.9825 179.542 80.9126C182.318 80.9841 185.06 80.2856 187.464 78.8943C189.702 77.5555 191.508 75.6017 192.667 73.2655C193.944 70.631 194.576 67.7304 194.51 64.8035C194.575 61.8686 193.944 58.96 192.667 56.3165C191.516 53.9686 189.709 52.0047 187.464 50.6626ZM186.211 69.9434C185.745 71.4074 184.876 72.7108 183.704 73.7042C182.529 74.6426 181.056 75.1275 179.554 75.0706C178.029 75.129 176.532 74.6449 175.329 73.7042C174.153 72.7144 173.283 71.4098 172.822 69.9434C172.251 68.2823 171.971 66.5349 171.995 64.7784C171.971 63.0138 172.251 61.2581 172.822 59.5884C173.291 58.1255 174.159 56.8228 175.329 55.8275C176.53 54.8824 178.027 54.3938 179.554 54.4486C181.058 54.3952 182.531 54.8847 183.704 55.8275C184.87 56.8263 185.737 58.1278 186.211 59.5884C186.772 61.2604 187.047 63.0149 187.026 64.7784C187.051 66.533 186.78 68.2793 186.223 69.9434H186.211Z" fill="#272D65"/>
<path d="M218.718 54.2229H218.417C217.966 53.3572 217.424 52.5421 216.8 51.7909C216.032 50.8601 215.075 50.1036 213.992 49.572C212.583 48.9058 211.036 48.5877 209.479 48.6443C207.17 48.6193 204.903 49.259 202.947 50.4871C200.915 51.8173 199.306 53.7006 198.309 55.9152C197.088 58.6752 196.501 61.6739 196.591 64.6906C196.499 67.7037 197.073 70.7001 198.271 73.466C199.253 75.7198 200.858 77.6465 202.897 79.0196C204.859 80.2899 207.154 80.9488 209.491 80.9126C211.024 80.963 212.547 80.6585 213.942 80.0226C215.024 79.4942 215.991 78.757 216.787 77.8537C217.428 77.1119 217.983 76.3004 218.442 75.4343H218.881V80.2732H226.127V38.6153H218.743L218.718 54.2229ZM218.003 69.981C217.522 71.3812 216.652 72.6157 215.496 73.5413C214.345 74.3939 212.941 74.8354 211.51 74.7949C210.036 74.8424 208.592 74.3771 207.423 73.4785C206.261 72.5428 205.391 71.2945 204.916 69.8806C204.324 68.2066 204.036 66.4408 204.063 64.6657C204.03 62.9075 204.315 61.1579 204.903 59.5007C205.382 58.1059 206.252 56.8784 207.41 55.9654C208.596 55.0874 210.048 54.6446 211.522 54.7118C212.962 54.6705 214.374 55.1118 215.534 55.9654C216.686 56.8634 217.556 58.0729 218.041 59.4505C218.636 61.1407 218.921 62.9244 218.881 64.7157C218.908 66.5093 218.611 68.2931 218.003 69.981Z" fill="#272D65"/>
<path d="M243.965 72.6513H243.64L236.444 49.0579H228.621L239.904 80.9502L239.277 82.6426C238.96 83.6085 238.393 84.4735 237.635 85.1499C237.003 85.651 236.222 85.9248 235.416 85.9271C234.443 85.9185 233.476 85.7707 232.545 85.4884L230.84 91.2174C231.493 91.463 232.169 91.6437 232.858 91.7565C233.776 91.9236 234.708 92.0033 235.641 91.9946C237.362 92.0464 239.074 91.7212 240.656 91.0418C242.033 90.428 243.245 89.4957 244.191 88.3216C245.201 87.0432 245.986 85.6017 246.51 84.0592L259.047 49.0328H251.211L243.965 72.6513Z" fill="#272D65"/>
<path d="M276.791 46.5382C278.586 45.3943 280.68 44.8056 282.808 44.8458C284.018 44.8379 285.222 45.0112 286.381 45.3599C287.452 45.6926 288.454 46.2149 289.34 46.9018C290.213 47.5978 290.952 48.4475 291.521 49.4091C292.141 50.429 292.566 51.5556 292.774 52.7312H300.384C300.121 50.5603 299.449 48.4588 298.403 46.5382C297.423 44.7716 296.112 43.2098 294.542 41.9375C292.956 40.6675 291.15 39.6988 289.214 39.0792C287.121 38.4227 284.939 38.097 282.745 38.1139C279.323 38.0501 275.948 38.9167 272.98 40.6211C270.064 42.3738 267.704 44.9165 266.173 47.9548C264.416 51.5398 263.556 55.4976 263.665 59.4882C263.563 63.4702 264.423 67.4179 266.173 70.9964C267.688 74.0449 270.046 76.5945 272.967 78.3427C275.948 80.0502 279.336 80.9167 282.771 80.8499C285.079 80.8766 287.374 80.499 289.553 79.7342C291.506 79.0431 293.313 77.993 294.881 76.6378C296.375 75.3472 297.624 73.797 298.566 72.062C299.511 70.3282 300.135 68.4386 300.409 66.4834H292.8C292.603 67.6386 292.176 68.7425 291.546 69.7303C290.963 70.6602 290.215 71.476 289.34 72.1373C288.447 72.7956 287.445 73.2921 286.381 73.6041C285.243 73.9477 284.06 74.1166 282.871 74.1054C280.76 74.1422 278.683 73.5676 276.891 72.4507C275.063 71.2516 273.632 69.5369 272.779 67.5239C271.709 64.9841 271.2 62.243 271.287 59.4882C271.208 56.7556 271.712 54.0375 272.767 51.5152C273.603 49.5044 275 47.7766 276.791 46.5382Z" fill="#272D65"/>
<path d="M326.609 50.0107C324.865 49.0728 322.909 48.6021 320.93 48.6443C318.86 48.5585 316.812 49.0956 315.05 50.1862C313.517 51.2003 312.328 52.656 311.64 54.3607H311.264V38.6404H304.068V80.2732H311.427V61.9703C311.389 60.6353 311.686 59.3118 312.292 58.1216C312.841 57.0942 313.677 56.2492 314.699 55.6897C315.77 55.116 316.97 54.8267 318.184 54.8497C319.02 54.8015 319.857 54.9333 320.637 55.2361C321.418 55.5388 322.125 56.0056 322.71 56.6048C323.857 57.976 324.436 59.7345 324.327 61.519V80.3234H331.698V60.4284C331.763 58.2172 331.303 56.0221 330.357 54.0224C329.543 52.3363 328.236 50.9372 326.609 50.0107Z" fill="#272D65"/>
<path d="M359.78 52.4304C358.484 51.1583 356.927 50.183 355.217 49.5721C353.466 48.949 351.621 48.6351 349.763 48.6444C347.024 48.5839 344.323 49.2918 341.966 50.6878C339.748 52.0687 337.962 54.0451 336.813 56.3917C335.538 59.0311 334.906 61.9354 334.97 64.8662C334.902 67.8082 335.529 70.7248 336.801 73.3784C337.954 75.7143 339.779 77.6525 342.041 78.9444C344.521 80.3112 347.321 80.9908 350.152 80.9127C352.359 80.9482 354.553 80.5698 356.621 79.7969C358.392 79.1322 359.981 78.0584 361.259 76.6629C362.49 75.3264 363.354 73.6938 363.766 71.9241L356.896 71.1469C356.596 71.9889 356.102 72.7488 355.455 73.3658C354.801 73.9639 354.034 74.4243 353.198 74.7197C352.261 75.0305 351.278 75.1831 350.29 75.1711C348.823 75.2068 347.374 74.8519 346.09 74.1431C344.886 73.4529 343.917 72.4181 343.307 71.172C342.636 69.7766 342.297 68.2449 342.317 66.6966H364.08V64.44C364.13 62.0255 363.743 59.6217 362.939 57.3445C362.252 55.4978 361.175 53.8215 359.78 52.4304ZM342.304 61.7322C342.362 60.5401 342.684 59.3758 343.244 58.3223C343.864 57.1602 344.776 56.1794 345.889 55.4766C347.081 54.7361 348.461 54.3572 349.864 54.3859C351.181 54.3473 352.484 54.6773 353.624 55.3387C354.683 55.9678 355.55 56.8736 356.132 57.9587C356.739 59.1191 357.053 60.4101 357.047 61.7196L342.304 61.7322Z" fill="#272D65"/>
<path d="M377.118 55.8025C378.275 54.9709 379.668 54.5315 381.092 54.5488C382.657 54.4754 384.188 55.0202 385.355 56.0657C386.416 57.0683 387.124 58.3878 387.373 59.8266H394.418C394.304 57.7135 393.615 55.6718 392.425 53.922C391.238 52.2177 389.62 50.8593 387.736 49.9856C385.62 49.0262 383.315 48.5509 380.992 48.5941C378.212 48.5262 375.469 49.2338 373.069 50.6375C370.836 52.0084 369.04 53.987 367.891 56.3416C366.625 58.9616 365.998 61.8442 366.061 64.7534C366.005 67.6417 366.618 70.5039 367.854 73.1151C368.992 75.4661 370.78 77.4412 373.006 78.8065C375.436 80.229 378.215 80.9413 381.029 80.8624C383.388 80.9216 385.728 80.4278 387.862 79.4207C389.728 78.5332 391.318 77.1553 392.463 75.4343C393.611 73.6809 394.285 71.6592 394.418 69.5673H387.373C387.177 70.6067 386.749 71.5882 386.119 72.4381C385.553 73.2066 384.809 73.8261 383.95 74.2433C383.035 74.6652 382.037 74.8754 381.029 74.8577C379.596 74.8804 378.194 74.4408 377.03 73.604C375.838 72.7023 374.925 71.4807 374.398 70.0813C373.73 68.334 373.411 66.4729 373.458 64.6029C373.408 62.7521 373.732 60.9103 374.41 59.1874C374.975 57.8262 375.914 56.6526 377.118 55.8025Z" fill="#272D65"/>
<path d="M417.223 80.2984H426.036L413.211 62.547L425.321 49.058H416.722L405.489 61.6068H404.988V38.6404H397.616V80.2984H404.988V69.793L407.658 66.9222L417.223 80.2984Z" fill="#272D65"/>
<defs>
<linearGradient id="paint0_linear_103_4" x1="84.3866" y1="52.11" x2="49.7764" y2="86.7188" gradientUnits="userSpaceOnUse">
<stop stop-color="#23D0C1"/>
<stop offset="1" stop-color="#3468F7"/>
</linearGradient>
</defs>
</svg>
