<svg width="79" height="62" viewBox="0 0 79 62" fill="none" xmlns="http://www.w3.org/2000/svg">
<path d="M20.5604 57.5529L20.573 57.5656C25.7629 62.7555 34.1772 62.7554 39.367 57.5654L74.2323 22.6995C79.4223 17.5095 79.4223 9.09516 74.2323 3.90516L74.2193 3.89256C69.0298 -1.29744 60.6155 -1.29754 55.4256 3.89236L20.5604 38.7584C15.3705 43.9483 15.3705 52.363 20.5604 57.5529Z" fill="#2AF2B8"/>
<path d="M20.5427 57.5578L20.5554 57.5705C25.7452 62.7604 34.1597 62.7604 39.3496 57.5705L56.016 40.9037C61.2059 35.7138 61.2057 27.2993 56.0159 22.1093L56.0032 22.0966C50.8134 16.9067 42.399 16.9065 37.2092 22.0965L20.5427 38.7633C15.3529 43.9532 15.3529 52.3679 20.5427 57.5578Z" fill="url(#paint0_linear_1435_15)"/>
<path d="M3.90495 22.0692L3.89225 22.0819C-1.29755 27.2719 -1.29735 35.6864 3.89245 40.8763L20.559 57.5431C25.7488 62.733 34.163 62.733 39.3528 57.5431L39.3654 57.5304C44.5552 52.3405 44.5554 43.926 39.3655 38.736L22.6991 22.0692C17.5092 16.8793 9.09475 16.8793 3.90495 22.0692Z" fill="#3468F7"/>
<defs>
<linearGradient id="paint0_linear_1435_15" x1="56.259" y1="23.982" x2="21.6488" y2="58.5908" gradientUnits="userSpaceOnUse">
<stop stop-color="#23D0C1"/>
<stop offset="1" stop-color="#3468F7"/>
</linearGradient>
</defs>
</svg>
